<svg width="180" height="180" viewBox="0 0 180 180" fill="none" xmlns="http://www.w3.org/2000/svg">
  <defs>
    <linearGradient id="bg" x1="24" y1="18" x2="156" y2="162" gradientUnits="userSpaceOnUse">
      <stop stop-color="#6366F1" />
      <stop offset="1" stop-color="#EC4899" />
    </linearGradient>
  </defs>
  <rect width="180" height="180" rx="40" fill="url(#bg)" />
  <path
    d="M118.557 51.5781C119.69 45.5391 112.931 41.0469 107.697 44.25L53.7422 77.2656C48.1172 80.6953 49.8398 89.2812 56.2891 90.2812L77.7188 93.5859C79.9219 93.9258 82.0703 92.9727 83.3359 91.1328L103.861 61.3594L88.1699 92.5312C86.8828 95.0898 87.7617 98.2148 90.1914 99.7109L101.42 106.625C104.757 108.68 109.103 106.728 109.804 102.875L118.557 51.5781Z"
    fill="white"
  />
  <path
    d="M74.6719 108.281L65.5 125.234C63.5156 128.906 68.0859 132.707 71.4453 129.758L89.1406 114.227C90.7266 112.836 90.3672 110.281 88.4375 109.375L79.9141 105.375C77.9688 104.461 75.707 106.367 74.6719 108.281Z"
    fill="#FDE68A"
  />
</svg>
